<svg width="32" height="32" viewBox="0 0 32 32" fill="none" xmlns="http://www.w3.org/2000/svg">
<g clip-path="url(#clip0_4_7)">
<rect width="32" height="32" rx="16" fill="white"/>
<path d="M20.3324 18.2577C20.502 18.068 20.602 17.8262 20.6158 17.5721V14.4032C20.6021 14.1491 20.5021 13.9072 20.3324 13.7176L20.1082 13.4934C20.033 13.4181 19.9908 13.316 19.9908 13.2095C19.9908 13.1031 20.033 13.001 20.1082 12.9256L22.4859 10.5468C22.5613 10.4717 22.6633 10.4295 22.7698 10.4295C22.8762 10.4295 22.9782 10.4717 23.0536 10.5468L23.9587 11.4522C24.0335 11.5277 24.0755 11.6297 24.0755 11.7361C24.0755 11.8424 24.0335 11.9444 23.9587 12.0199L22.2617 13.7176C22.0917 13.907 21.9916 14.1489 21.978 14.4032V17.572C21.9915 17.8261 22.0917 18.0679 22.2617 18.2572L23.9587 19.9554C24.0335 20.031 24.0755 20.133 24.0755 20.2393C24.0755 20.3456 24.0335 20.4477 23.9587 20.5232L23.0536 21.4286C22.9782 21.5037 22.8762 21.5458 22.7698 21.5458C22.6634 21.5458 22.5613 21.5037 22.4859 21.4286L20.1082 19.0495C20.033 18.9741 19.9908 18.8721 19.9908 18.7657C19.9908 18.6592 20.033 18.5572 20.1082 18.4818L20.3324 18.2577Z" fill="#583BD1"/>
<path d="M13.798 20.2553C13.9875 20.4251 14.2292 20.5252 14.4832 20.5392H17.65C17.9042 20.5252 18.1461 20.4251 18.3358 20.2553L18.5595 20.0305C18.6351 19.9556 18.7372 19.9137 18.8436 19.9137C18.95 19.9137 19.0521 19.9556 19.1278 20.0305L21.5051 22.4094C21.5802 22.4849 21.6223 22.5871 21.6223 22.6936C21.6223 22.8001 21.5802 22.9023 21.5051 22.9777L20.6001 23.8832C20.5245 23.958 20.4225 24 20.3161 24C20.2098 24 20.1077 23.958 20.0321 23.8832L18.3355 22.1847C18.1458 22.015 17.9041 21.9149 17.65 21.9009H14.4823C14.2282 21.9149 13.9866 22.0149 13.7971 22.1847L12.0997 23.8832C12.0241 23.958 11.9222 24 11.8158 24C11.7096 24 11.6075 23.958 11.5321 23.8832L10.627 22.9777C10.5519 22.9023 10.5098 22.8001 10.5098 22.6936C10.5098 22.5871 10.5519 22.4849 10.627 22.4094L13.0061 20.0303C13.0816 19.9555 13.1835 19.9135 13.2898 19.9135C13.3961 19.9135 13.4981 19.9555 13.5736 20.0303L13.798 20.2553Z" fill="#583BD1"/>
<path d="M11.7442 13.7421C11.5741 13.9319 11.4738 14.1741 11.46 14.4287V17.5964C11.4738 17.8508 11.5741 18.0928 11.7442 18.2824L11.9684 18.5072C12.0434 18.5826 12.0854 18.6847 12.0854 18.7911C12.0854 18.8974 12.0434 18.9995 11.9684 19.0749L9.59007 21.4535C9.51467 21.5286 9.41256 21.5707 9.30622 21.5707C9.19981 21.5707 9.09777 21.5286 9.02237 21.4535L8.11732 20.5476C8.04222 20.4722 8.00003 20.3701 8.00003 20.2637C8.00003 20.1573 8.04222 20.0552 8.11732 19.9798L9.81392 18.2821C9.98403 18.0925 10.0844 17.8505 10.0983 17.5961L10.0978 14.4284C10.0842 14.1739 9.98403 13.9316 9.81392 13.7418L8.11732 12.0442C8.04222 11.9689 8.00003 11.867 8.00003 11.7606C8.00003 11.6543 8.04222 11.5523 8.11732 11.477L9.02237 10.5711C9.05966 10.5338 9.10388 10.5042 9.15256 10.4841C9.20132 10.4639 9.25347 10.4535 9.30622 10.4535C9.3589 10.4535 9.41113 10.4639 9.45981 10.4841C9.50856 10.5042 9.55279 10.5338 9.59007 10.5711L11.9684 12.9496C12.0434 13.0251 12.0854 13.1271 12.0854 13.2335C12.0854 13.3399 12.0434 13.442 11.9684 13.5174L11.7442 13.7421Z" fill="#583BD1"/>
<path d="M18.2786 11.7446C18.0891 11.5746 17.8473 11.4744 17.5932 11.4607H14.4262C14.1721 11.4747 13.9305 11.5748 13.7409 11.7446L13.5162 11.9693C13.479 12.0066 13.4348 12.0361 13.3861 12.0563C13.3374 12.0765 13.2853 12.0869 13.2326 12.0869C13.1799 12.0869 13.1277 12.0765 13.0791 12.0563C13.0304 12.0361 12.9862 12.0066 12.9489 11.9693L10.5709 9.59028C10.4959 9.51475 10.4538 9.41259 10.4538 9.3061C10.4538 9.19961 10.4959 9.09745 10.5709 9.02192L11.476 8.11758C11.5513 8.04229 11.6534 8 11.7599 8C11.8664 8 11.9685 8.04229 12.0438 8.11758L13.7408 9.8152C13.9304 9.98496 14.172 10.0851 14.4261 10.0991H17.5932C17.8473 10.0853 18.0891 9.98517 18.2786 9.8152L19.9756 8.11758C20.0511 8.04275 20.1531 8.00077 20.2595 8.00077C20.3658 8.00077 20.4678 8.04275 20.5434 8.11758L21.4485 9.02297C21.5235 9.09849 21.5656 9.20064 21.5656 9.30712C21.5656 9.41359 21.5235 9.51574 21.4485 9.59126L19.071 11.9692C18.9957 12.0445 18.8936 12.0868 18.7871 12.0868C18.6806 12.0868 18.5785 12.0445 18.5032 11.9692L18.2786 11.7446Z" fill="#583BD1"/>
</g>
<defs>
<clipPath id="clip0_4_7">
<rect width="32" height="32" fill="white" transform="matrix(1 0 0 -1 0 32)"/>
</clipPath>
</defs>
</svg>
