<svg width="215" height="83" viewBox="0 0 215 83" fill="none" xmlns="http://www.w3.org/2000/svg">
<g clip-path="url(#clip0_71_3)">
<path d="M19.925 28.4375C18.6958 28.4375 18.0813 27.9167 18.0813 26.875V23.75C18.0813 22.7083 18.6958 22.1875 19.925 22.1875H22.05V21.0938C22.05 20.1562 22.2688 19.3021 22.7063 18.5312L25.1125 14.3125C25.5708 13.5208 26.1125 13.125 26.7375 13.125H28.925C30.175 13.125 30.8 13.75 30.8 15V22.1875H35.8625C37.0917 22.1875 37.7063 22.7083 37.7063 23.75V26.875C37.7063 27.9167 37.0917 28.4375 35.8625 28.4375H30.8V43.9375C30.8 46.0625 30.9458 47.5938 31.2375 48.5312C31.55 49.4479 32.3417 49.9062 33.6125 49.9062C34.2583 49.9062 34.9875 49.8021 35.8 49.5938C36.6125 49.3646 37.2479 49.1458 37.7063 48.9375C38.4354 48.6042 38.9146 48.8438 39.1438 49.6562L40.0813 53.2188C40.2688 53.9271 39.9979 54.4479 39.2688 54.7812C38.5813 55.0938 37.6333 55.375 36.425 55.625C35.2375 55.8958 34.0396 56.0312 32.8313 56.0312C29.8521 56.0312 27.3104 55.4167 25.2063 54.1875C23.1021 52.9583 22.05 50.4271 22.05 46.5938V28.4375H19.925ZM42.4813 16.25C42.4813 14.3125 43.1583 12.6667 44.5125 11.3125C45.8875 9.9375 47.5438 9.25 49.4813 9.25C51.4188 9.25 53.0646 9.9375 54.4188 11.3125C55.7938 12.6667 56.4813 14.3125 56.4813 16.25C56.4813 18.1875 55.7938 19.8438 54.4188 21.2188C53.0646 22.5729 51.4188 23.25 49.4813 23.25C47.5438 23.25 45.8875 22.5729 44.5125 21.2188C43.1583 19.8438 42.4813 18.1875 42.4813 16.25ZM46.8563 16.25C46.8563 17 47.1063 17.625 47.6063 18.125C48.1063 18.625 48.7313 18.875 49.4813 18.875C50.2313 18.875 50.8563 18.625 51.3563 18.125C51.8563 17.625 52.1063 17 52.1063 16.25C52.1063 15.5 51.8563 14.875 51.3563 14.375C50.8563 13.875 50.2313 13.625 49.4813 13.625C48.7313 13.625 48.1063 13.875 47.6063 14.375C47.1063 14.875 46.8563 15.5 46.8563 16.25ZM59.7563 38.5938C59.7563 33.3229 61.0688 29.1667 63.6938 26.125C66.3396 23.0833 70.0688 21.5625 74.8813 21.5625C80.4646 21.5625 84.6104 23 87.3188 25.875C90.0271 28.75 91.3813 33.375 91.3813 39.75C91.3813 41 90.7979 41.625 89.6313 41.625H69.0063C69.3396 45.0833 70.1938 47.2604 71.5688 48.1562C72.9438 49.0521 74.5375 49.5 76.35 49.5C78.0792 49.5 79.4021 49.2708 80.3188 48.8125C81.2354 48.3542 82.0063 47.7292 82.6313 46.9375C83.3396 46.0208 84.2146 45.875 85.2563 46.5L88.3813 48.4062C89.6104 49.1562 89.7875 50.0521 88.9125 51.0938C87.6417 52.6146 86.1521 53.75 84.4438 54.5C82.7354 55.25 80.0375 55.625 76.35 55.625C70.3708 55.625 66.1104 54.1042 63.5688 51.0625C61.0271 48.0208 59.7563 43.8646 59.7563 38.5938ZM69.0375 35.375H82.6313C82.6313 33.125 82.0688 31.2917 80.9438 29.875C79.8188 28.4375 78.0271 27.7188 75.5688 27.7188C73.6104 27.7188 72.0583 28.4062 70.9125 29.7812C69.7667 31.1354 69.1417 33 69.0375 35.375ZM98.4688 67.5C97.2188 67.5 96.5938 66.875 96.5938 65.625V24.0625C96.5938 22.8125 97.2188 22.1875 98.4688 22.1875H103.406C104.448 22.1875 105.01 22.8125 105.094 24.0625L105.219 25.875H105.344C106.427 24.0833 107.635 22.9167 108.969 22.375C110.302 21.8333 111.906 21.5625 113.781 21.5625C118.677 21.5625 122.115 23.2604 124.094 26.6562C126.094 30.0312 127.094 34.0104 127.094 38.5938C127.094 43.1771 126.094 47.1667 124.094 50.5625C122.115 53.9375 118.677 55.625 113.781 55.625C111.906 55.625 110.302 55.3542 108.969 54.8125C107.635 54.2708 106.427 53.1042 105.344 51.3125H105.219C105.302 52.1458 105.344 52.9792 105.344 53.8125V65.625C105.344 66.875 104.719 67.5 103.469 67.5H98.4688ZM105.344 40C105.344 42.8125 105.896 45.1042 107 46.875C108.125 48.625 109.469 49.5 111.031 49.5C113.844 49.5 115.677 48.5208 116.531 46.5625C117.406 44.5833 117.844 41.9271 117.844 38.5938C117.844 35.2604 117.406 32.6146 116.531 30.6562C115.677 28.6771 113.844 27.6875 111.031 27.6875C109.469 27.6875 108.125 28.5729 107 30.3438C105.896 32.0938 105.344 34.375 105.344 37.1875V40ZM134.119 55C132.869 55 132.244 54.375 132.244 53.125V16.2188C132.244 15.2812 132.462 14.4271 132.9 13.6562L135.306 9.4375C135.765 8.64583 136.306 8.25 136.931 8.25H139.119C140.369 8.25 140.994 8.875 140.994 10.125V53.125C140.994 54.375 140.369 55 139.119 55H134.119ZM149.769 55C148.519 55 147.894 54.375 147.894 53.125V24.0625C147.894 22.8125 148.519 22.1875 149.769 22.1875H154.769C156.019 22.1875 156.644 22.8125 156.644 24.0625V53.125C156.644 54.375 156.019 55 154.769 55H149.769ZM149.769 17.375C148.519 17.375 147.894 16.75 147.894 15.5V11.5C147.894 10.25 148.519 9.625 149.769 9.625H154.769C156.019 9.625 156.644 10.25 156.644 11.5V15.5C156.644 16.75 156.019 17.375 154.769 17.375H149.769ZM163.731 55C161.94 55 161.565 54.2396 162.606 52.7188L172.95 37.7188L163.825 24.4688C162.783 22.9479 163.158 22.1875 164.95 22.1875H170.856C171.794 22.1875 172.502 22.6042 172.981 23.4375L177.825 31.875L182.669 23.4375C183.148 22.6042 183.856 22.1875 184.794 22.1875H190.7C192.512 22.1875 192.887 22.9479 191.825 24.4688L182.637 37.7188L193.044 52.7188C194.106 54.2396 193.731 55 191.919 55H186.012C185.096 55 184.387 54.5833 183.887 53.75L177.825 43.5625L171.762 53.75C171.262 54.5833 170.554 55 169.637 55H163.731Z" fill="black"/>
<path d="M119.58 68.0977C119.287 68.0977 119.14 67.9707 119.14 67.7168V66.9785C119.14 66.7246 119.287 66.5977 119.58 66.5977H125.603C125.896 66.5977 126.043 66.7246 126.043 66.9785V67.7168C126.043 67.9707 125.896 68.0977 125.603 68.0977H123.447V74.6777C123.447 74.8926 123.349 75 123.154 75H122.029C121.834 75 121.736 74.8926 121.736 74.6777V68.0977H119.58ZM124.864 71.9238C124.864 70.9355 125.11 70.1562 125.602 69.5859C126.098 69.0156 126.797 68.7305 127.7 68.7305C128.746 68.7305 129.524 69 130.032 69.5391C130.539 70.0781 130.793 70.9453 130.793 72.1406C130.793 72.375 130.684 72.4922 130.465 72.4922H126.598C126.661 73.1406 126.821 73.5488 127.079 73.7168C127.336 73.8848 127.635 73.9688 127.975 73.9688C128.299 73.9688 128.547 73.9258 128.719 73.8398C128.891 73.7539 129.036 73.6367 129.153 73.4883C129.286 73.3164 129.45 73.2891 129.645 73.4062L130.231 73.7637C130.461 73.9043 130.495 74.0723 130.33 74.2676C130.092 74.5527 129.813 74.7656 129.493 74.9062C129.172 75.0469 128.666 75.1172 127.975 75.1172C126.854 75.1172 126.055 74.832 125.579 74.2617C125.102 73.6914 124.864 72.9121 124.864 71.9238ZM126.604 71.3203H129.153C129.153 70.8984 129.047 70.5547 128.836 70.2891C128.625 70.0195 128.289 69.8848 127.829 69.8848C127.461 69.8848 127.17 70.0137 126.955 70.2715C126.741 70.5254 126.623 70.875 126.604 71.3203ZM131.443 71.9238C131.443 70.9277 131.693 70.1465 132.193 69.5801C132.693 69.0137 133.46 68.7305 134.495 68.7305C135.101 68.7305 135.571 68.8105 135.907 68.9707C136.243 69.1309 136.513 69.3652 136.716 69.6738C136.837 69.8574 136.818 70.002 136.657 70.1074L136.036 70.5176C135.861 70.6348 135.706 70.5898 135.573 70.3828C135.507 70.2812 135.38 70.1719 135.193 70.0547C135.005 69.9375 134.773 69.8789 134.495 69.8789C134.054 69.8789 133.724 70.0352 133.505 70.3477C133.286 70.6562 133.177 71.1816 133.177 71.9238C133.177 72.666 133.286 73.1934 133.505 73.5059C133.724 73.8145 134.054 73.9688 134.495 73.9688C134.812 73.9688 135.068 73.9023 135.263 73.7695C135.458 73.6367 135.642 73.4648 135.814 73.2539C135.962 73.0742 136.118 73.0488 136.282 73.1777L136.827 73.6055C136.991 73.7344 137.001 73.9062 136.857 74.1211C136.704 74.3477 136.445 74.5703 136.077 74.7891C135.714 75.0078 135.187 75.1172 134.495 75.1172C133.46 75.1172 132.693 74.834 132.193 74.2676C131.693 73.7012 131.443 72.9199 131.443 71.9238ZM138.186 75C137.951 75 137.834 74.8828 137.834 74.6484V66.7031C137.834 66.4688 137.951 66.3516 138.186 66.3516H139.123C139.357 66.3516 139.475 66.4688 139.475 66.7031V69.0703C139.475 69.2266 139.467 69.3828 139.451 69.5391H139.486C139.666 69.2305 139.895 69.0195 140.172 68.9062C140.449 68.7891 140.783 68.7305 141.174 68.7305C141.783 68.7305 142.287 68.9219 142.686 69.3047C143.084 69.6875 143.283 70.3867 143.283 71.4023V74.6484C143.283 74.8828 143.166 75 142.932 75H141.994C141.76 75 141.643 74.8828 141.643 74.6484V71.8242C141.643 70.9727 141.584 70.4355 141.467 70.2129C141.35 69.9902 141.098 69.8789 140.711 69.8789C140.301 69.8789 139.992 70.0391 139.785 70.3594C139.578 70.6758 139.475 71.3359 139.475 72.3398V74.6484C139.475 74.8828 139.357 75 139.123 75H138.186ZM144.917 75C144.682 75 144.565 74.8828 144.565 74.6484V69.1992C144.565 68.9648 144.682 68.8477 144.917 68.8477H145.843C146.077 68.8477 146.194 68.9648 146.194 69.1992V69.5391H146.218C146.397 69.2305 146.626 69.0195 146.903 68.9062C147.18 68.7891 147.514 68.7305 147.905 68.7305C148.514 68.7305 149.018 68.9219 149.417 69.3047C149.815 69.6875 150.014 70.3867 150.014 71.4023V74.6484C150.014 74.8828 149.897 75 149.663 75H148.725C148.491 75 148.374 74.8828 148.374 74.6484V71.8242C148.374 70.9727 148.315 70.4355 148.198 70.2129C148.081 69.9902 147.829 69.8789 147.442 69.8789C147.032 69.8789 146.723 70.0391 146.516 70.3594C146.309 70.6758 146.206 71.3359 146.206 72.3398V74.6484C146.206 74.8828 146.089 75 145.854 75H144.917ZM150.968 71.9238C150.968 70.9277 151.224 70.1465 151.736 69.5801C152.252 69.0137 153.017 68.7305 154.033 68.7305C155.048 68.7305 155.812 69.0137 156.324 69.5801C156.839 70.1465 157.097 70.9277 157.097 71.9238C157.097 72.9199 156.839 73.7012 156.324 74.2676C155.812 74.834 155.048 75.1172 154.033 75.1172C153.017 75.1172 152.252 74.834 151.736 74.2676C151.224 73.7012 150.968 72.9199 150.968 71.9238ZM152.703 71.9238C152.703 72.666 152.816 73.1934 153.043 73.5059C153.273 73.8145 153.603 73.9688 154.033 73.9688C154.463 73.9688 154.791 73.8145 155.017 73.5059C155.248 73.1934 155.363 72.666 155.363 71.9238C155.363 71.1816 155.248 70.6562 155.017 70.3477C154.791 70.0352 154.463 69.8789 154.033 69.8789C153.603 69.8789 153.273 70.0352 153.043 70.3477C152.816 70.6562 152.703 71.1816 152.703 71.9238ZM158.414 75C158.18 75 158.063 74.8828 158.063 74.6484V67.7285C158.063 67.5527 158.104 67.3926 158.186 67.248L158.637 66.457C158.723 66.3086 158.825 66.2344 158.942 66.2344H159.352C159.586 66.2344 159.704 66.3516 159.704 66.5859V74.6484C159.704 74.8828 159.586 75 159.352 75H158.414ZM160.669 71.9238C160.669 70.9277 160.925 70.1465 161.437 69.5801C161.952 69.0137 162.718 68.7305 163.734 68.7305C164.749 68.7305 165.513 69.0137 166.025 69.5801C166.54 70.1465 166.798 70.9277 166.798 71.9238C166.798 72.9199 166.54 73.7012 166.025 74.2676C165.513 74.834 164.749 75.1172 163.734 75.1172C162.718 75.1172 161.952 74.834 161.437 74.2676C160.925 73.7012 160.669 72.9199 160.669 71.9238ZM162.404 71.9238C162.404 72.666 162.517 73.1934 162.743 73.5059C162.974 73.8145 163.304 73.9688 163.734 73.9688C164.163 73.9688 164.491 73.8145 164.718 73.5059C164.948 73.1934 165.064 72.666 165.064 71.9238C165.064 71.1816 164.948 70.6562 164.718 70.3477C164.491 70.0352 164.163 69.8789 163.734 69.8789C163.304 69.8789 162.974 70.0352 162.743 70.3477C162.517 70.6562 162.404 71.1816 162.404 71.9238ZM167.436 71.9238C167.436 71.0645 167.621 70.3184 167.992 69.6855C168.367 69.0488 169.014 68.7305 169.932 68.7305C170.283 68.7305 170.584 68.7812 170.834 68.8828C171.084 68.9844 171.311 69.2031 171.514 69.5391H171.537L171.561 69.1992C171.576 68.9648 171.682 68.8477 171.877 68.8477H172.803C173.037 68.8477 173.154 68.9648 173.154 69.1992V74.9355C173.154 75.8926 172.896 76.5527 172.381 76.916C171.865 77.2793 171.119 77.4609 170.143 77.4609C169.729 77.4609 169.346 77.4395 168.994 77.3965C168.643 77.3535 168.287 77.2461 167.928 77.0742C167.74 76.9844 167.709 76.8145 167.834 76.5645L168.045 76.1426C168.131 75.9707 168.273 75.9316 168.473 76.0254C168.633 76.0996 168.83 76.166 169.064 76.2246C169.303 76.2832 169.604 76.3125 169.967 76.3125C170.467 76.3125 170.85 76.2188 171.115 76.0312C171.381 75.8477 171.514 75.4434 171.514 74.8184V74.7188C171.514 74.5625 171.521 74.4062 171.537 74.25H171.514C171.311 74.5859 171.084 74.8047 170.834 74.9062C170.584 75.0078 170.283 75.0586 169.932 75.0586C169.014 75.0586 168.367 74.7422 167.992 74.1094C167.621 73.4727 167.436 72.7441 167.436 71.9238ZM169.17 71.9238C169.17 72.5098 169.25 72.9883 169.41 73.3594C169.574 73.7266 169.92 73.9102 170.447 73.9102C170.74 73.9102 170.99 73.7461 171.197 73.418C171.408 73.0859 171.514 72.6562 171.514 72.1289V71.6602C171.514 71.1328 171.408 70.7051 171.197 70.377C170.99 70.0449 170.74 69.8789 170.447 69.8789C169.92 69.8789 169.574 70.0645 169.41 70.4355C169.25 70.8027 169.17 71.2988 169.17 71.9238ZM174.8 75C174.565 75 174.448 74.8828 174.448 74.6484V69.1992C174.448 68.9648 174.565 68.8477 174.8 68.8477H175.737C175.971 68.8477 176.089 68.9648 176.089 69.1992V74.6484C176.089 74.8828 175.971 75 175.737 75H174.8ZM174.8 67.9453C174.565 67.9453 174.448 67.8281 174.448 67.5938V66.8438C174.448 66.6094 174.565 66.4922 174.8 66.4922H175.737C175.971 66.4922 176.089 66.6094 176.089 66.8438V67.5938C176.089 67.8281 175.971 67.9453 175.737 67.9453H174.8ZM177.054 71.9238C177.054 70.9355 177.3 70.1562 177.793 69.5859C178.289 69.0156 178.988 68.7305 179.89 68.7305C180.937 68.7305 181.714 69 182.222 69.5391C182.73 70.0781 182.984 70.9453 182.984 72.1406C182.984 72.375 182.875 72.4922 182.656 72.4922H178.789C178.851 73.1406 179.011 73.5488 179.269 73.7168C179.527 73.8848 179.826 73.9688 180.166 73.9688C180.49 73.9688 180.738 73.9258 180.91 73.8398C181.082 73.7539 181.226 73.6367 181.343 73.4883C181.476 73.3164 181.64 73.2891 181.836 73.4062L182.421 73.7637C182.652 73.9043 182.685 74.0723 182.521 74.2676C182.283 74.5527 182.004 74.7656 181.683 74.9062C181.363 75.0469 180.857 75.1172 180.166 75.1172C179.045 75.1172 178.246 74.832 177.769 74.2617C177.293 73.6914 177.054 72.9121 177.054 71.9238ZM178.795 71.3203H181.343C181.343 70.8984 181.238 70.5547 181.027 70.2891C180.816 70.0195 180.48 69.8848 180.019 69.8848C179.652 69.8848 179.361 70.0137 179.146 70.2715C178.931 70.5254 178.814 70.875 178.795 71.3203ZM183.838 74.5898C183.647 74.4531 183.594 74.3066 183.68 74.1504L183.979 73.6055C184.084 73.4102 184.248 73.3867 184.471 73.5352C184.694 73.6836 184.955 73.793 185.256 73.8633C185.561 73.9336 185.838 73.9688 186.088 73.9688C186.264 73.9688 186.428 73.9512 186.58 73.916C186.733 73.8809 186.862 73.8125 186.967 73.7109C187.073 73.6094 187.125 73.4609 187.125 73.2656C187.125 73.1484 187.094 73.0488 187.032 72.9668C186.969 72.8848 186.889 72.8223 186.791 72.7793C186.694 72.7363 186.59 72.7012 186.481 72.6738C186.336 72.6387 186.127 72.5801 185.854 72.498C185.584 72.416 185.325 72.3203 185.075 72.2109C184.868 72.1211 184.664 71.9961 184.465 71.8359C184.27 71.6719 184.125 71.4902 184.032 71.291C183.942 71.0918 183.897 70.8457 183.897 70.5527C183.897 70.1582 184.01 69.8125 184.237 69.5156C184.467 69.2188 184.764 69.0137 185.127 68.9004C185.491 68.7871 185.944 68.7305 186.487 68.7305C186.854 68.7305 187.211 68.7832 187.559 68.8887C187.907 68.9941 188.155 69.0938 188.303 69.1875C188.537 69.3359 188.596 69.4941 188.479 69.6621L188.121 70.1836C188.012 70.3398 187.836 70.3516 187.594 70.2188C187.411 70.1172 187.229 70.0352 187.049 69.9727C186.873 69.9102 186.676 69.8789 186.457 69.8789C186.309 69.8789 186.166 69.8945 186.03 69.9258C185.893 69.957 185.776 70.0156 185.678 70.1016C185.584 70.1875 185.537 70.3008 185.537 70.4414C185.537 70.5898 185.58 70.707 185.666 70.793C185.756 70.875 185.858 70.9355 185.971 70.9746C186.088 71.0137 186.2 71.0508 186.305 71.0859C186.524 71.1562 186.745 71.2246 186.967 71.291C187.19 71.3535 187.416 71.4297 187.647 71.5195C187.846 71.5977 188.039 71.709 188.227 71.8535C188.414 71.998 188.551 72.1816 188.637 72.4043C188.723 72.627 188.766 72.8809 188.766 73.166C188.766 73.5449 188.653 73.8965 188.426 74.2207C188.2 74.5449 187.901 74.7754 187.53 74.9121C187.159 75.0488 186.727 75.1172 186.235 75.1172C185.684 75.1172 185.215 75.0781 184.829 75C184.442 74.9219 184.112 74.7852 183.838 74.5898Z" fill="black"/>
<path d="M192.633 63.3984C192.633 62.6016 192.789 61.8438 193.102 61.125C193.414 60.401 193.831 59.7786 194.352 59.2578C194.878 58.7318 195.5 58.3125 196.219 58C196.943 57.6875 197.703 57.5312 198.5 57.5312C199.297 57.5312 200.055 57.6875 200.773 58C201.497 58.3125 202.12 58.7318 202.641 59.2578C203.167 59.7786 203.586 60.401 203.898 61.125C204.211 61.8438 204.367 62.6016 204.367 63.3984C204.367 64.1953 204.211 64.9557 203.898 65.6797C203.586 66.3984 203.167 67.0208 202.641 67.5469C202.12 68.0677 201.497 68.4844 200.773 68.7969C200.055 69.1094 199.297 69.2656 198.5 69.2656C197.703 69.2656 196.943 69.1094 196.219 68.7969C195.5 68.4844 194.878 68.0677 194.352 67.5469C193.831 67.0208 193.414 66.3984 193.102 65.6797C192.789 64.9557 192.633 64.1953 192.633 63.3984ZM193.539 63.3984C193.539 64.0755 193.669 64.7188 193.93 65.3281C194.195 65.9375 194.549 66.4635 194.992 66.9062C195.435 67.349 195.961 67.7083 196.57 67.9844C197.18 68.2552 197.823 68.3906 198.5 68.3906C199.177 68.3906 199.82 68.2552 200.43 67.9844C201.039 67.7083 201.565 67.349 202.008 66.9062C202.451 66.4635 202.802 65.9375 203.062 65.3281C203.328 64.7188 203.461 64.0755 203.461 63.3984C203.461 62.7214 203.328 62.0781 203.062 61.4688C202.802 60.8594 202.451 60.3333 202.008 59.8906C201.565 59.4479 201.039 59.0911 200.43 58.8203C199.82 58.5443 199.177 58.4062 198.5 58.4062C197.823 58.4062 197.18 58.5443 196.57 58.8203C195.961 59.0911 195.435 59.4479 194.992 59.8906C194.549 60.3333 194.195 60.8594 193.93 61.4688C193.669 62.0781 193.539 62.7214 193.539 63.3984ZM196.43 66.7891C196.216 66.7891 196.109 66.6771 196.109 66.4531V60.6328C196.109 60.4089 196.216 60.2969 196.43 60.2969H198.523C199.456 60.2969 200.135 60.4427 200.562 60.7344C200.995 61.0208 201.211 61.487 201.211 62.1328C201.211 62.6172 201.036 63.0026 200.688 63.2891C200.344 63.5755 199.904 63.7656 199.367 63.8594V63.8672C199.659 63.9766 199.878 64.1276 200.023 64.3203C200.169 64.5078 200.289 64.6771 200.383 64.8281L201.383 66.3984C201.549 66.6589 201.492 66.7891 201.211 66.7891H200.375C200.208 66.7891 200.073 66.7005 199.969 66.5234L199.055 65C198.961 64.8438 198.781 64.6667 198.516 64.4688C198.25 64.2708 197.984 64.1719 197.719 64.1719H197.477V66.4531C197.477 66.6771 197.372 66.7891 197.164 66.7891H196.43ZM197.477 63.0391H198.211C198.815 63.0391 199.245 62.9714 199.5 62.8359C199.755 62.7005 199.883 62.4844 199.883 62.1875C199.883 61.8594 199.76 61.651 199.516 61.5625C199.271 61.4688 198.909 61.4219 198.43 61.4219H197.477V63.0391Z" fill="black"/>
</g>
<defs>
<clipPath id="clip0_71_3">
<rect width="215" height="83" fill="white"/>
</clipPath>
</defs>
</svg>
