<svg width="820" height="312" viewBox="0 0 820 312" fill="none" xmlns="http://www.w3.org/2000/svg">
<path d="M121.597 185.915C119.348 183.402 118.023 180.198 117.841 176.831V134.844C118.023 131.476 119.348 128.272 121.597 125.759L124.567 122.788C125.563 121.79 126.122 120.437 126.122 119.027C126.122 117.616 125.563 116.264 124.567 115.265L93.0626 83.7455C92.0636 82.7502 90.7111 82.1914 89.3011 82.1914C87.8911 82.1914 86.5386 82.7502 85.5396 83.7455L73.5476 95.742C72.5562 96.7427 72 98.0945 72 99.5034C72 100.912 72.5562 102.264 73.5476 103.265L96.0326 125.758C98.2854 128.268 99.612 131.474 99.7921 134.843V176.83C99.6125 180.197 98.2857 183.4 96.0326 185.908L73.5476 208.41C72.5562 209.411 72 210.763 72 212.171C72 213.58 72.5562 214.932 73.5476 215.933L85.5396 227.929C86.5387 228.924 87.8912 229.483 89.3011 229.483C90.711 229.483 92.0635 228.924 93.0626 227.929L124.567 196.407C125.563 195.408 126.122 194.056 126.122 192.646C126.122 191.235 125.563 189.883 124.567 188.885L121.597 185.915Z" fill="#583BD1"/>
<path d="M208.176 212.383C205.665 214.632 202.463 215.959 199.097 216.145H157.137C153.769 215.959 150.564 214.633 148.05 212.383L145.087 209.404C144.085 208.412 142.732 207.856 141.322 207.856C139.912 207.856 138.56 208.412 137.557 209.404L106.057 240.924C105.063 241.925 104.504 243.279 104.504 244.69C104.504 246.101 105.063 247.455 106.057 248.455L118.049 260.452C119.05 261.444 120.402 262 121.812 262C123.221 262 124.573 261.444 125.574 260.452L148.054 237.947C150.568 235.699 153.771 234.373 157.138 234.187H199.11C202.476 234.372 205.678 235.698 208.189 237.947L230.679 260.452C231.68 261.444 233.031 262 234.44 262C235.848 262 237.2 261.444 238.2 260.452L250.192 248.455C251.187 247.455 251.745 246.101 251.745 244.69C251.745 243.279 251.187 241.925 250.192 240.924L218.669 209.402C217.669 208.41 216.318 207.854 214.91 207.854C213.502 207.854 212.15 208.41 211.15 209.402L208.176 212.383Z" fill="#583BD1"/>
<path d="M235.39 126.083C237.644 128.598 238.973 131.807 239.156 135.18V177.152C238.972 180.523 237.643 183.73 235.39 186.242L232.419 189.22C231.426 190.22 230.869 191.572 230.869 192.982C230.869 194.391 231.426 195.743 232.419 196.743L263.932 228.259C264.931 229.254 266.284 229.812 267.693 229.812C269.103 229.812 270.455 229.254 271.454 228.259L283.446 216.256C284.441 215.257 285 213.904 285 212.494C285 211.084 284.441 209.731 283.446 208.732L260.966 186.238C258.712 183.726 257.382 180.519 257.198 177.148L257.204 135.176C257.385 131.804 258.712 128.594 260.966 126.079L283.446 103.586C284.441 102.589 285 101.237 285 99.8283C285 98.4194 284.441 97.068 283.446 96.0709L271.454 84.0674C270.96 83.5733 270.374 83.1813 269.729 82.9139C269.083 82.6465 268.392 82.5088 267.693 82.5088C266.995 82.5088 266.303 82.6465 265.658 82.9139C265.012 83.1813 264.426 83.5733 263.932 84.0674L232.419 115.582C231.426 116.582 230.869 117.934 230.869 119.344C230.869 120.754 231.426 122.106 232.419 123.106L235.39 126.083Z" fill="#583BD1"/>
<path d="M148.81 99.6159C151.32 97.3637 154.524 96.0365 157.891 95.854H199.854C203.22 96.0397 206.422 97.3665 208.934 99.6159L211.911 102.593C212.404 103.087 212.99 103.479 213.635 103.746C214.28 104.014 214.971 104.151 215.669 104.151C216.367 104.151 217.059 104.014 217.703 103.746C218.348 103.479 218.934 103.087 219.428 102.593L250.936 71.0712C251.93 70.0705 252.488 68.7168 252.488 67.3058C252.488 65.8949 251.93 64.5412 250.936 63.5404L238.944 51.5579C237.946 50.5604 236.593 50 235.182 50C233.771 50 232.418 50.5604 231.42 51.5579L208.935 74.0514C206.423 76.3007 203.221 77.6275 199.855 77.8132H157.891C154.524 77.6307 151.32 76.3035 148.81 74.0514L126.324 51.5579C125.323 50.5664 123.971 50.0103 122.562 50.0103C121.154 50.0103 119.802 50.5664 118.8 51.5579L106.808 63.5544C105.814 64.555 105.256 65.9085 105.256 67.3193C105.256 68.7301 105.814 70.0836 106.808 71.0842L138.31 102.592C139.308 103.59 140.661 104.15 142.072 104.15C143.482 104.15 144.836 103.59 145.834 102.592L148.81 99.6159Z" fill="#583BD1"/>
<path d="M404.916 185.88C404.916 189.976 402.356 192.024 397.236 192.024C392.201 192.024 389.684 189.976 389.684 185.88V102.296H367.284C364.212 102.296 362.591 100.12 362.42 95.768C362.42 91.5013 364.041 89.368 367.284 89.368H427.316C430.559 89.368 432.095 91.5013 431.924 95.768C431.924 100.12 430.388 102.296 427.316 102.296H404.916V185.88ZM456.293 170.52C456.293 172.568 456.933 174.488 458.213 176.28C459.578 178.072 461.84 178.968 464.997 178.968H480.997C484.154 178.968 486.373 178.2 487.653 176.664C489.018 175.043 489.701 173.208 489.701 171.16V169.752C489.701 165.741 492.048 163.736 496.741 163.736C501.434 163.736 503.781 165.741 503.781 169.752V171.288C503.781 174.872 503.184 177.816 501.989 180.12C500.88 182.424 499.173 184.429 496.869 186.136C492.346 189.379 487.824 191 483.301 191H461.797C457.274 191 452.88 189.379 448.613 186.136C446.565 184.429 444.986 182.296 443.877 179.736C442.768 177.091 442.213 174.061 442.213 170.648V134.168C442.213 127.256 444.346 122.136 448.613 118.808C450.746 117.272 452.922 116.077 455.141 115.224C457.445 114.285 459.664 113.816 461.797 113.816H483.301C485.349 113.816 487.61 114.243 490.085 115.096C492.56 115.864 494.864 116.931 496.997 118.296C499.045 119.747 500.666 121.752 501.861 124.312C503.141 126.872 503.781 129.901 503.781 133.4V150.68C503.781 152.643 503.184 154.392 501.989 155.928C500.88 157.464 498.789 158.232 495.717 158.232H468.069C464.997 158.232 463.376 156.227 463.205 152.216C463.205 148.205 464.826 146.2 468.069 146.2H489.829L489.701 134.296C489.701 132.163 489.018 130.243 487.653 128.536C486.373 126.744 484.154 125.848 480.997 125.848H464.997C461.84 125.848 459.578 126.744 458.213 128.536C456.933 130.243 456.293 132.163 456.293 134.296V170.52ZM545.944 191C542.872 191 541.251 188.995 541.08 184.984C541.08 180.973 542.701 178.968 545.944 178.968H558.872C562.029 178.968 564.248 178.072 565.528 176.28C566.893 174.488 567.576 172.568 567.576 170.52V134.424C567.576 132.291 566.893 130.328 565.528 128.536C564.248 126.659 561.987 125.805 558.744 125.976H534.168V202.904C534.168 206.915 531.821 208.92 527.128 208.92C522.435 208.92 520.088 206.872 520.088 202.776V121.496C520.088 118.509 520.856 116.504 522.392 115.48C523.928 114.456 525.805 113.944 528.024 113.944H561.176C563.395 113.944 565.613 114.328 567.832 115.096C570.136 115.864 572.483 116.931 574.872 118.296C576.92 119.747 578.541 121.795 579.736 124.44C581.016 127 581.656 130.029 581.656 133.528V171.416C581.656 178.413 579.395 183.405 574.872 186.392C570.093 189.464 565.528 191 561.176 191H545.944ZM612.305 186.008C612.305 190.019 609.958 192.024 605.265 192.024C600.486 192.024 598.097 190.019 598.097 186.008V94.232C598.097 90.2213 600.486 88.216 605.265 88.216C609.958 88.216 612.305 90.2213 612.305 94.232V186.008ZM644.427 185.624C644.427 189.72 642.08 191.768 637.387 191.768C632.608 191.768 630.219 189.72 630.219 185.624V119.576C630.219 115.48 632.608 113.432 637.387 113.432C642.08 113.432 644.427 115.48 644.427 119.576V185.624ZM647.115 97.304C647.115 100.035 646.176 102.339 644.299 104.216C642.422 106.093 640.118 107.032 637.387 107.032C634.656 107.032 632.31 106.093 630.347 104.216C628.47 102.339 627.531 100.035 627.531 97.304C627.531 94.488 628.47 92.1413 630.347 90.264C632.31 88.3867 634.656 87.448 637.387 87.448C640.118 87.448 642.422 88.3867 644.299 90.264C646.176 92.1413 647.115 94.488 647.115 97.304ZM694.085 151.832L715.589 182.168C716.186 183.021 716.485 183.96 716.485 184.984C716.485 186.776 715.205 188.568 712.645 190.36C711.024 191.469 709.488 192.024 708.037 192.024C707.184 192.024 706.288 191.725 705.349 191.128C704.496 190.531 703.685 189.763 702.917 188.824L685.381 164.12C684.101 165.912 682.693 167.875 681.157 170.008C679.706 172.141 678.213 174.317 676.677 176.536C675.141 178.669 673.605 180.803 672.069 182.936C670.618 185.069 669.253 187.032 667.973 188.824C666.352 190.957 664.602 192.024 662.725 192.024C661.104 192.024 659.568 191.469 658.117 190.36C656.922 189.507 655.984 188.696 655.301 187.928C654.704 187.075 654.405 186.136 654.405 185.112C654.405 184.088 654.746 183.107 655.429 182.168L676.677 151.832C673.52 147.309 670.192 142.573 666.693 137.624C663.194 132.675 659.866 127.896 656.709 123.288C656.368 122.691 656.026 122.051 655.685 121.368C655.429 120.6 655.301 120.003 655.301 119.576C655.301 117.784 656.496 116.12 658.885 114.584H658.757C659.61 114.157 660.378 113.816 661.061 113.56C661.829 113.219 662.554 113.048 663.237 113.048C665.541 113.048 667.546 114.285 669.253 116.76L685.381 139.672L701.509 116.76C703.301 114.285 705.306 113.048 707.525 113.048C708.293 113.048 709.018 113.219 709.701 113.56C710.384 113.816 711.152 114.157 712.005 114.584H711.877C714.352 116.12 715.589 117.784 715.589 119.576C715.589 120.6 715.077 121.837 714.053 123.288L694.085 151.832Z" fill="black"/>
</svg>
